<?xml version="1.0" encoding="UTF-8"?>
<svg id="Livello_3" data-name="Livello 3" xmlns="http://www.w3.org/2000/svg" viewBox="0 0 500 500">
  <defs>
    <style>
      .cls-1 {
        fill: #fff;
      }

      .cls-1, .cls-2 {
        stroke: #1d1d1b;
        stroke-linecap: round;
        stroke-miterlimit: 10;
        stroke-width: 10px;
      }

      .cls-2 {
        fill: none;
      }
    </style>
  </defs>
  <path class="cls-2" d="M275.77,358.92h-135.79c-5.37,0-9.7-4.4-9.6-9.77l3.94-227.3c.09-5.24,4.36-9.44,9.6-9.44h127.92c5.24,0,9.51,4.2,9.6,9.44l3.94,227.3c.09,5.37-4.23,9.77-9.6,9.77Z"/>
  <line class="cls-2" x1="133.94" y1="143.11" x2="281.96" y2="143.11"/>
  <line class="cls-2" x1="229.37" y1="165.59" x2="262.64" y2="165.59"/>
  <line class="cls-2" x1="251.87" y1="187.59" x2="262.64" y2="187.59"/>
  <rect class="cls-1" x="240.58" y="245.28" width="128.11" height="26.19" rx="6" ry="6"/>
  <rect class="cls-1" x="247.23" y="271.47" width="114.8" height="116.11" rx="6" ry="6"/>
  <g>
    <path class="cls-2" d="M412.08,323.07s9.56,68.93-63.9,63.9"/>
    <path class="cls-2" d="M410.82,321.8s-68.93-9.56-63.9,63.9"/>
  </g>
  <g>
    <path class="cls-1" d="M349.52,296.86s55.5,41.98,0,90.36"/>
    <path class="cls-1" d="M347.73,296.86s-55.5,41.98,0,90.36"/>
  </g>
  <line class="cls-2" x1="347.73" y1="346.11" x2="347.73" y2="384.03"/>
  <rect class="cls-1" x="87.51" y="258.8" width="73.29" height="105.31" rx="34.33" ry="34.33"/>
  <path class="cls-2" d="M117.04,263.06s16.72,10.78,14.23,30.12c-4.8,30.48-28.99,30.48-11.88,70.6"/>
</svg>