<?xml version="1.0" encoding="UTF-8"?>
<svg id="Livello_3" data-name="Livello 3" xmlns="http://www.w3.org/2000/svg" viewBox="0 0 500 500">
  <defs>
    <style>
      .cls-1 {
        fill: none;
        stroke: #000;
        stroke-linecap: round;
        stroke-linejoin: round;
        stroke-width: 13px;
      }
    </style>
  </defs>
  <path class="cls-1" d="M305.27,184.01c-3.95-8.87-9.48-16.87-16.27-23.64,2.14,6.95,3.29,14.32,3.29,21.97,0,12.73-3.2,24.72-8.82,35.2l-6.74,10.38-34.78,53.53c-1.06,1.52-2.08,3.07-3.04,4.67-1.53,2.56-2.91,5.22-4.14,7.95-4.43,9.82-6.92,20.7-6.92,32.17s2.42,22.05,6.74,31.76c3.95,8.89,9.49,16.91,16.29,23.68-2.14-6.95-3.29-14.32-3.29-21.97,0-12.89,3.27-25.01,9.02-35.59l6.25-9.62,34.48-53.07,4.02-6.19c1.37-2.35,2.62-4.77,3.75-7.27,4.43-9.82,6.92-20.7,6.92-32.17s-2.43-22.09-6.76-31.81Z"/>
  <path class="cls-1" d="M265.38,141.94c-3.95-8.87-9.48-16.87-16.27-23.64,2.14,6.95,3.29,14.33,3.29,21.97,0,12.73-3.2,24.72-8.82,35.2l-6.74,10.38-34.78,53.53c-1.06,1.52-2.08,3.07-3.04,4.67-1.53,2.56-2.91,5.22-4.14,7.95-4.43,9.82-6.92,20.7-6.92,32.17s2.42,22.05,6.74,31.76c3.95,8.89,9.49,16.91,16.29,23.68-2.14-6.95-3.29-14.33-3.29-21.97,0-12.89,3.27-25.01,9.02-35.59l6.25-9.62,34.48-53.07c1.43-2,2.78-4.06,4.02-6.19,1.37-2.35,2.62-4.77,3.75-7.27,4.43-9.82,6.92-20.7,6.92-32.17s-2.43-22.09-6.76-31.81Z"/>
</svg>